ISO-10303-21;
HEADER;

/* File generated by Shapr3D Version 26.170.11783.0 */

FILE_DESCRIPTION(('HOOPS Exchange Step'),'2;1');

FILE_NAME('C:\\Users\\86180\\AppData\\Local\\Packages\\Shapr3D.Shapr3D_j403pzjkqtqbj\\TempState\\export\\temp_export',
'2026-09-23T19:33:25+08:00',
('86180'),
('Shapr3D Limited'),
'HOOPS Exchange 2026.3',
'Shapr3D',
'Authorized');

FILE_SCHEMA( ('AP242_MANAGED_MODEL_BASED_3D_ENGINEERING_MIM_LF {1 0 10303 442 1 1 4}') );

ENDSEC;

DATA;
#3=(NAMED_UNIT(*)PLANE_ANGLE_UNIT()SI_UNIT($,.RADIAN.));
#4=PLANE_ANGLE_MEASURE_WITH_UNIT(PLANE_ANGLE_MEASURE(0.0174532925),#3);
#5=(CONVERSION_BASED_UNIT('DEGREE',#4)NAMED_UNIT(#6)PLANE_ANGLE_UNIT());
#6=DIMENSIONAL_EXPONENTS(0.,0.,0.,0.,0.,0.,0.);
#7=(NAMED_UNIT(*)SI_UNIT($,.STERADIAN.)SOLID_ANGLE_UNIT());
#8=(LENGTH_UNIT()NAMED_UNIT(*)SI_UNIT(.MILLI.,.METRE.));
#9=UNCERTAINTY_MEASURE_WITH_UNIT(LENGTH_MEASURE(1.000000E-05),#8,'DISTANCE_ACCURACY_VALUE','Maximum Tolerance applied to model');
#10=(GEOMETRIC_REPRESENTATION_CONTEXT(3)GLOBAL_UNCERTAINTY_ASSIGNED_CONTEXT((#9))GLOBAL_UNIT_ASSIGNED_CONTEXT((#8,#5,#7))REPRESENTATION_CONTEXT('','root'));
#12=CARTESIAN_POINT('',(0.,0.,0.));
#13=DIRECTION('',(0.,0.,1.));
#14=DIRECTION('',(1.,0.,0.));
#15=AXIS2_PLACEMENT_3D('',#12,#13,#14);
#27=CARTESIAN_POINT('',(172.5,-1.5,2.));
#28=DIRECTION('',(1.,0.,0.));
#29=DIRECTION('',(0.,0.,-1.));
#30=AXIS2_PLACEMENT_3D('',#27,#28,#29);
#31=PLANE('',#30);
#32=CARTESIAN_POINT('',(172.5,2.5,0.));
#33=VERTEX_POINT('',#32);
#34=CARTESIAN_POINT('',(172.5,-7.,0.));
#35=VERTEX_POINT('',#34);
#36=CARTESIAN_POINT('',(172.5,2.5,0.));
#37=DIRECTION('',(0.,-1.,0.));
#38=VECTOR('',#37,9.5);
#39=LINE('',#36,#38);
#40=EDGE_CURVE('',#33,#35,#39,.T.);
#41=ORIENTED_EDGE('',*,*,#40,.F.);
#42=CARTESIAN_POINT('',(172.5,2.5,2.));
#43=VERTEX_POINT('',#42);
#44=CARTESIAN_POINT('',(172.5,2.5,2.));
#45=DIRECTION('',(0.,0.,-1.));
#46=VECTOR('',#45,2.);
#47=LINE('',#44,#46);
#48=EDGE_CURVE('',#43,#33,#47,.T.);
#49=ORIENTED_EDGE('',*,*,#48,.F.);
#50=CARTESIAN_POINT('',(172.5,-7.,2.));
#51=VERTEX_POINT('',#50);
#52=CARTESIAN_POINT('',(172.5,2.5,2.));
#53=DIRECTION('',(0.,-1.,0.));
#54=VECTOR('',#53,9.5);
#55=LINE('',#52,#54);
#56=EDGE_CURVE('',#43,#51,#55,.T.);
#57=ORIENTED_EDGE('',*,*,#56,.T.);
#58=CARTESIAN_POINT('',(172.5,-7.,2.));
#59=DIRECTION('',(0.,0.,-1.));
#60=VECTOR('',#59,2.);
#61=LINE('',#58,#60);
#62=EDGE_CURVE('',#51,#35,#61,.T.);
#63=ORIENTED_EDGE('',*,*,#62,.T.);
#64=EDGE_LOOP('',(#41,#49,#57,#63));
#65=FACE_BOUND('',#64,.T.);
#66=ADVANCED_FACE('',(#65),#31,.T.);
#67=CARTESIAN_POINT('',(171.25,2.5,2.));
#68=DIRECTION('',(0.,1.,0.));
#69=DIRECTION('',(0.,0.,1.));
#70=AXIS2_PLACEMENT_3D('',#67,#68,#69);
#71=PLANE('',#70);
#72=CARTESIAN_POINT('',(167.5,2.5,0.));
#73=VERTEX_POINT('',#72);
#74=CARTESIAN_POINT('',(167.5,2.5,0.));
#75=DIRECTION('',(1.,0.,-0.));
#76=VECTOR('',#75,5.);
#77=LINE('',#74,#76);
#78=EDGE_CURVE('',#73,#33,#77,.T.);
#79=ORIENTED_EDGE('',*,*,#78,.F.);
#80=CARTESIAN_POINT('',(167.5,2.5,2.));
#81=VERTEX_POINT('',#80);
#82=CARTESIAN_POINT('',(167.5,2.5,2.));
#83=DIRECTION('',(0.,0.,-1.));
#84=VECTOR('',#83,2.);
#85=LINE('',#82,#84);
#86=EDGE_CURVE('',#81,#73,#85,.T.);
#87=ORIENTED_EDGE('',*,*,#86,.F.);
#88=CARTESIAN_POINT('',(167.5,2.5,2.));
#89=DIRECTION('',(1.,0.,-0.));
#90=VECTOR('',#89,5.);
#91=LINE('',#88,#90);
#92=EDGE_CURVE('',#81,#43,#91,.T.);
#93=ORIENTED_EDGE('',*,*,#92,.T.);
#94=ORIENTED_EDGE('',*,*,#48,.T.);
#95=EDGE_LOOP('',(#79,#87,#93,#94));
#96=FACE_BOUND('',#95,.T.);
#97=ADVANCED_FACE('',(#96),#71,.T.);
#98=CARTESIAN_POINT('',(167.5,-2.25,2.));
#99=DIRECTION('',(-1.,0.,0.));
#100=DIRECTION('',(0.,0.,1.));
#101=AXIS2_PLACEMENT_3D('',#98,#99,#100);
#102=PLANE('',#101);
#103=CARTESIAN_POINT('',(167.5,-7.,0.));
#104=VERTEX_POINT('',#103);
#105=CARTESIAN_POINT('',(167.5,-7.,0.));
#106=DIRECTION('',(0.,1.,0.));
#107=VECTOR('',#106,9.5);
#108=LINE('',#105,#107);
#109=EDGE_CURVE('',#104,#73,#108,.T.);
#110=ORIENTED_EDGE('',*,*,#109,.F.);
#111=CARTESIAN_POINT('',(167.5,-7.,2.));
#112=VERTEX_POINT('',#111);
#113=CARTESIAN_POINT('',(167.5,-7.,2.));
#114=DIRECTION('',(0.,0.,-1.));
#115=VECTOR('',#114,2.);
#116=LINE('',#113,#115);
#117=EDGE_CURVE('',#112,#104,#116,.T.);
#118=ORIENTED_EDGE('',*,*,#117,.F.);
#119=CARTESIAN_POINT('',(167.5,-7.,2.));
#120=DIRECTION('',(0.,1.,0.));
#121=VECTOR('',#120,9.5);
#122=LINE('',#119,#121);
#123=EDGE_CURVE('',#112,#81,#122,.T.);
#124=ORIENTED_EDGE('',*,*,#123,.T.);
#125=ORIENTED_EDGE('',*,*,#86,.T.);
#126=EDGE_LOOP('',(#110,#118,#124,#125));
#127=FACE_BOUND('',#126,.T.);
#128=ADVANCED_FACE('',(#127),#102,.T.);
#129=CARTESIAN_POINT('',(170.,0.,2.));
#130=DIRECTION('',(0.,0.,-1.));
#131=DIRECTION('',(-1.,0.,0.));
#132=AXIS2_PLACEMENT_3D('',#129,#130,#131);
#133=CYLINDRICAL_SURFACE('',#132,1.6);
#134=CARTESIAN_POINT('',(168.4,0.,0.));
#135=VERTEX_POINT('',#134);
#136=CARTESIAN_POINT('',(168.4,0.,2.));
#137=VERTEX_POINT('',#136);
#138=CARTESIAN_POINT('',(168.4,0.,0.));
#139=DIRECTION('',(-0.,-0.,1.));
#140=VECTOR('',#139,2.);
#141=LINE('',#138,#140);
#142=EDGE_CURVE('',#135,#137,#141,.T.);
#143=ORIENTED_EDGE('',*,*,#142,.F.);
#144=CARTESIAN_POINT('',(171.6,-0.,0.));
#145=VERTEX_POINT('',#144);
#146=CARTESIAN_POINT('',(170.,0.,0.));
#147=DIRECTION('',(0.,0.,1.));
#148=DIRECTION('',(1.,-0.,0.));
#149=AXIS2_PLACEMENT_3D('',#146,#147,#148);
#150=CIRCLE('',#149,1.6);
#151=EDGE_CURVE('',#145,#135,#150,.T.);
#152=ORIENTED_EDGE('',*,*,#151,.F.);
#153=CARTESIAN_POINT('',(170.,0.,0.));
#154=DIRECTION('',(0.,0.,1.));
#155=DIRECTION('',(1.,-0.,0.));
#156=AXIS2_PLACEMENT_3D('',#153,#154,#155);
#157=CIRCLE('',#156,1.6);
#158=EDGE_CURVE('',#135,#145,#157,.T.);
#159=ORIENTED_EDGE('',*,*,#158,.F.);
#160=ORIENTED_EDGE('',*,*,#142,.T.);
#161=CARTESIAN_POINT('',(171.6,-0.,2.));
#162=VERTEX_POINT('',#161);
#163=CARTESIAN_POINT('',(170.,0.,2.));
#164=DIRECTION('',(0.,0.,1.));
#165=DIRECTION('',(1.,-0.,0.));
#166=AXIS2_PLACEMENT_3D('',#163,#164,#165);
#167=CIRCLE('',#166,1.6);
#168=EDGE_CURVE('',#137,#162,#167,.T.);
#169=ORIENTED_EDGE('',*,*,#168,.T.);
#170=CARTESIAN_POINT('',(170.,0.,2.));
#171=DIRECTION('',(0.,0.,1.));
#172=DIRECTION('',(1.,-0.,0.));
#173=AXIS2_PLACEMENT_3D('',#170,#171,#172);
#174=CIRCLE('',#173,1.6);
#175=EDGE_CURVE('',#162,#137,#174,.T.);
#176=ORIENTED_EDGE('',*,*,#175,.T.);
#177=EDGE_LOOP('',(#143,#152,#159,#160,#169,#176));
#178=FACE_BOUND('',#177,.T.);
#179=ADVANCED_FACE('',(#178),#133,.F.);
#180=CARTESIAN_POINT('',(170.,-7.,2.));
#181=DIRECTION('',(0.,-1.,0.));
#182=DIRECTION('',(0.,0.,-1.));
#183=AXIS2_PLACEMENT_3D('',#180,#181,#182);
#184=PLANE('',#183);
#185=CARTESIAN_POINT('',(172.5,-7.,0.));
#186=DIRECTION('',(-1.,0.,0.));
#187=VECTOR('',#186,5.);
#188=LINE('',#185,#187);
#189=EDGE_CURVE('',#35,#104,#188,.T.);
#190=ORIENTED_EDGE('',*,*,#189,.F.);
#191=ORIENTED_EDGE('',*,*,#62,.F.);
#192=CARTESIAN_POINT('',(172.5,-7.,2.));
#193=DIRECTION('',(-1.,0.,0.));
#194=VECTOR('',#193,5.);
#195=LINE('',#192,#194);
#196=EDGE_CURVE('',#51,#112,#195,.T.);
#197=ORIENTED_EDGE('',*,*,#196,.T.);
#198=ORIENTED_EDGE('',*,*,#117,.T.);
#199=EDGE_LOOP('',(#190,#191,#197,#198));
#200=FACE_BOUND('',#199,.T.);
#201=ADVANCED_FACE('',(#200),#184,.T.);
#202=CARTESIAN_POINT('',(0.,0.,2.));
#203=DIRECTION('',(0.,0.,1.));
#204=DIRECTION('',(1.,0.,0.));
#205=AXIS2_PLACEMENT_3D('',#202,#203,#204);
#206=PLANE('',#205);
#207=ORIENTED_EDGE('',*,*,#168,.F.);
#208=ORIENTED_EDGE('',*,*,#175,.F.);
#209=EDGE_LOOP('',(#207,#208));
#210=FACE_BOUND('',#209,.T.);
#211=ORIENTED_EDGE('',*,*,#56,.F.);
#212=ORIENTED_EDGE('',*,*,#92,.F.);
#213=ORIENTED_EDGE('',*,*,#123,.F.);
#214=ORIENTED_EDGE('',*,*,#196,.F.);
#215=EDGE_LOOP('',(#211,#212,#213,#214));
#216=FACE_BOUND('',#215,.T.);
#217=ADVANCED_FACE('',(#210,#216),#206,.T.);
#218=CARTESIAN_POINT('',(0.,0.,0.));
#219=DIRECTION('',(0.,0.,1.));
#220=DIRECTION('',(1.,0.,0.));
#221=AXIS2_PLACEMENT_3D('',#218,#219,#220);
#222=PLANE('',#221);
#223=ORIENTED_EDGE('',*,*,#151,.T.);
#224=ORIENTED_EDGE('',*,*,#158,.T.);
#225=EDGE_LOOP('',(#223,#224));
#226=FACE_BOUND('',#225,.T.);
#227=ORIENTED_EDGE('',*,*,#40,.T.);
#228=ORIENTED_EDGE('',*,*,#189,.T.);
#229=ORIENTED_EDGE('',*,*,#109,.T.);
#230=ORIENTED_EDGE('',*,*,#78,.T.);
#231=EDGE_LOOP('',(#227,#228,#229,#230));
#232=FACE_BOUND('',#231,.T.);
#233=ADVANCED_FACE('',(#226,#232),#222,.F.);
#234=CLOSED_SHELL('',(#66,#97,#128,#179,#201,#217,#233));
#235=MANIFOLD_SOLID_BREP('\X2\5B9E4F53\X0\  845',#234);
#236=COLOUR_RGB('',0.627451003,0.627451003,0.643137276);
#237=FILL_AREA_STYLE_COLOUR('',#236);
#238=FILL_AREA_STYLE('',(#237));
#239=SURFACE_STYLE_FILL_AREA(#238);
#240=SURFACE_SIDE_STYLE('',(#239));
#241=SURFACE_STYLE_USAGE(.BOTH.,#240);
#242=PRESENTATION_STYLE_ASSIGNMENT((#241));
#26=STYLED_ITEM('',(#242),#235);
#244=CARTESIAN_POINT('',(163.,-1.85,2.));
#245=DIRECTION('',(1.,0.,0.));
#246=DIRECTION('',(0.,0.,-1.));
#247=AXIS2_PLACEMENT_3D('',#244,#245,#246);
#248=PLANE('',#247);
#249=CARTESIAN_POINT('',(163.,3.5,0.));
#250=VERTEX_POINT('',#249);
#251=CARTESIAN_POINT('',(163.,-5.7,0.));
#252=VERTEX_POINT('',#251);
#253=CARTESIAN_POINT('',(163.,3.5,0.));
#254=DIRECTION('',(0.,-1.,0.));
#255=VECTOR('',#254,9.2);
#256=LINE('',#253,#255);
#257=EDGE_CURVE('',#250,#252,#256,.T.);
#258=ORIENTED_EDGE('',*,*,#257,.F.);
#259=CARTESIAN_POINT('',(163.,3.5,2.));
#260=VERTEX_POINT('',#259);
#261=CARTESIAN_POINT('',(163.,3.5,2.));
#262=DIRECTION('',(0.,0.,-1.));
#263=VECTOR('',#262,2.);
#264=LINE('',#261,#263);
#265=EDGE_CURVE('',#260,#250,#264,.T.);
#266=ORIENTED_EDGE('',*,*,#265,.F.);
#267=CARTESIAN_POINT('',(163.,-5.7,2.));
#268=VERTEX_POINT('',#267);
#269=CARTESIAN_POINT('',(163.,3.5,2.));
#270=DIRECTION('',(0.,-1.,0.));
#271=VECTOR('',#270,9.2);
#272=LINE('',#269,#271);
#273=EDGE_CURVE('',#260,#268,#272,.T.);
#274=ORIENTED_EDGE('',*,*,#273,.T.);
#275=CARTESIAN_POINT('',(163.,-5.7,2.));
#276=DIRECTION('',(0.,0.,-1.));
#277=VECTOR('',#276,2.);
#278=LINE('',#275,#277);
#279=EDGE_CURVE('',#268,#252,#278,.T.);
#280=ORIENTED_EDGE('',*,*,#279,.T.);
#281=EDGE_LOOP('',(#258,#266,#274,#280));
#282=FACE_BOUND('',#281,.T.);
#283=ADVANCED_FACE('',(#282),#248,.T.);
#284=CARTESIAN_POINT('',(160.,3.5,2.));
#285=DIRECTION('',(0.,-1.,0.));
#286=DIRECTION('',(0.,0.,-1.));
#287=AXIS2_PLACEMENT_3D('',#284,#285,#286);
#288=PLANE('',#287);
#289=CARTESIAN_POINT('',(157.,3.5,0.));
#290=VERTEX_POINT('',#289);
#291=CARTESIAN_POINT('',(163.,3.5,0.));
#292=DIRECTION('',(-1.,0.,0.));
#293=VECTOR('',#292,6.);
#294=LINE('',#291,#293);
#295=EDGE_CURVE('',#250,#290,#294,.T.);
#296=ORIENTED_EDGE('',*,*,#295,.T.);
#297=CARTESIAN_POINT('',(157.,3.5,2.));
#298=VERTEX_POINT('',#297);
#299=CARTESIAN_POINT('',(157.,3.5,2.));
#300=DIRECTION('',(0.,0.,-1.));
#301=VECTOR('',#300,2.);
#302=LINE('',#299,#301);
#303=EDGE_CURVE('',#298,#290,#302,.T.);
#304=ORIENTED_EDGE('',*,*,#303,.F.);
#305=CARTESIAN_POINT('',(163.,3.5,2.));
#306=DIRECTION('',(-1.,0.,0.));
#307=VECTOR('',#306,6.);
#308=LINE('',#305,#307);
#309=EDGE_CURVE('',#260,#298,#308,.T.);
#310=ORIENTED_EDGE('',*,*,#309,.F.);
#311=ORIENTED_EDGE('',*,*,#265,.T.);
#312=EDGE_LOOP('',(#296,#304,#310,#311));
#313=FACE_BOUND('',#312,.T.);
#314=ADVANCED_FACE('',(#313),#288,.F.);
#315=CARTESIAN_POINT('',(157.,1.75,2.));
#316=DIRECTION('',(1.,0.,0.));
#317=DIRECTION('',(0.,0.,-1.));
#318=AXIS2_PLACEMENT_3D('',#315,#316,#317);
#319=PLANE('',#318);
#320=CARTESIAN_POINT('',(157.,-5.7,0.));
#321=VERTEX_POINT('',#320);
#322=CARTESIAN_POINT('',(157.,3.5,0.));
#323=DIRECTION('',(0.,-1.,0.));
#324=VECTOR('',#323,9.2);
#325=LINE('',#322,#324);
#326=EDGE_CURVE('',#290,#321,#325,.T.);
#327=ORIENTED_EDGE('',*,*,#326,.T.);
#328=CARTESIAN_POINT('',(157.,-5.7,2.));
#329=VERTEX_POINT('',#328);
#330=CARTESIAN_POINT('',(157.,-5.7,2.));
#331=DIRECTION('',(0.,0.,-1.));
#332=VECTOR('',#331,2.);
#333=LINE('',#330,#332);
#334=EDGE_CURVE('',#329,#321,#333,.T.);
#335=ORIENTED_EDGE('',*,*,#334,.F.);
#336=CARTESIAN_POINT('',(157.,3.5,2.));
#337=DIRECTION('',(0.,-1.,0.));
#338=VECTOR('',#337,9.2);
#339=LINE('',#336,#338);
#340=EDGE_CURVE('',#298,#329,#339,.T.);
#341=ORIENTED_EDGE('',*,*,#340,.F.);
#342=ORIENTED_EDGE('',*,*,#303,.T.);
#343=EDGE_LOOP('',(#327,#335,#341,#342));
#344=FACE_BOUND('',#343,.T.);
#345=ADVANCED_FACE('',(#344),#319,.F.);
#346=CARTESIAN_POINT('',(160.,0.,2.));
#347=DIRECTION('',(0.,0.,-1.));
#348=DIRECTION('',(-1.,0.,0.));
#349=AXIS2_PLACEMENT_3D('',#346,#347,#348);
#350=CYLINDRICAL_SURFACE('',#349,1.6);
#351=CARTESIAN_POINT('',(158.4,0.,0.));
#352=VERTEX_POINT('',#351);
#353=CARTESIAN_POINT('',(158.4,0.,2.));
#354=VERTEX_POINT('',#353);
#355=CARTESIAN_POINT('',(158.4,0.,0.));
#356=DIRECTION('',(-0.,-0.,1.));
#357=VECTOR('',#356,2.);
#358=LINE('',#355,#357);
#359=EDGE_CURVE('',#352,#354,#358,.T.);
#360=ORIENTED_EDGE('',*,*,#359,.F.);
#361=CARTESIAN_POINT('',(161.6,-0.,0.));
#362=VERTEX_POINT('',#361);
#363=CARTESIAN_POINT('',(160.,0.,0.));
#364=DIRECTION('',(0.,0.,1.));
#365=DIRECTION('',(1.,-0.,0.));
#366=AXIS2_PLACEMENT_3D('',#363,#364,#365);
#367=CIRCLE('',#366,1.6);
#368=EDGE_CURVE('',#362,#352,#367,.T.);
#369=ORIENTED_EDGE('',*,*,#368,.F.);
#370=CARTESIAN_POINT('',(160.,0.,0.));
#371=DIRECTION('',(0.,0.,1.));
#372=DIRECTION('',(1.,-0.,0.));
#373=AXIS2_PLACEMENT_3D('',#370,#371,#372);
#374=CIRCLE('',#373,1.6);
#375=EDGE_CURVE('',#352,#362,#374,.T.);
#376=ORIENTED_EDGE('',*,*,#375,.F.);
#377=ORIENTED_EDGE('',*,*,#359,.T.);
#378=CARTESIAN_POINT('',(161.6,-0.,2.));
#379=VERTEX_POINT('',#378);
#380=CARTESIAN_POINT('',(160.,0.,2.));
#381=DIRECTION('',(0.,0.,1.));
#382=DIRECTION('',(1.,-0.,0.));
#383=AXIS2_PLACEMENT_3D('',#380,#381,#382);
#384=CIRCLE('',#383,1.6);
#385=EDGE_CURVE('',#354,#379,#384,.T.);
#386=ORIENTED_EDGE('',*,*,#385,.T.);
#387=CARTESIAN_POINT('',(160.,0.,2.));
#388=DIRECTION('',(0.,0.,1.));
#389=DIRECTION('',(1.,-0.,0.));
#390=AXIS2_PLACEMENT_3D('',#387,#388,#389);
#391=CIRCLE('',#390,1.6);
#392=EDGE_CURVE('',#379,#354,#391,.T.);
#393=ORIENTED_EDGE('',*,*,#392,.T.);
#394=EDGE_LOOP('',(#360,#369,#376,#377,#386,#393));
#395=FACE_BOUND('',#394,.T.);
#396=ADVANCED_FACE('',(#395),#350,.F.);
#397=CARTESIAN_POINT('',(160.,-5.7,2.));
#398=DIRECTION('',(0.,-1.,0.));
#399=DIRECTION('',(0.,0.,-1.));
#400=AXIS2_PLACEMENT_3D('',#397,#398,#399);
#401=PLANE('',#400);
#402=CARTESIAN_POINT('',(163.,-5.7,0.));
#403=DIRECTION('',(-1.,0.,0.));
#404=VECTOR('',#403,6.);
#405=LINE('',#402,#404);
#406=EDGE_CURVE('',#252,#321,#405,.T.);
#407=ORIENTED_EDGE('',*,*,#406,.F.);
#408=ORIENTED_EDGE('',*,*,#279,.F.);
#409=CARTESIAN_POINT('',(163.,-5.7,2.));
#410=DIRECTION('',(-1.,0.,0.));
#411=VECTOR('',#410,6.);
#412=LINE('',#409,#411);
#413=EDGE_CURVE('',#268,#329,#412,.T.);
#414=ORIENTED_EDGE('',*,*,#413,.T.);
#415=ORIENTED_EDGE('',*,*,#334,.T.);
#416=EDGE_LOOP('',(#407,#408,#414,#415));
#417=FACE_BOUND('',#416,.T.);
#418=ADVANCED_FACE('',(#417),#401,.T.);
#419=CARTESIAN_POINT('',(0.,0.,2.));
#420=DIRECTION('',(0.,0.,1.));
#421=DIRECTION('',(1.,0.,0.));
#422=AXIS2_PLACEMENT_3D('',#419,#420,#421);
#423=PLANE('',#422);
#424=ORIENTED_EDGE('',*,*,#385,.F.);
#425=ORIENTED_EDGE('',*,*,#392,.F.);
#426=EDGE_LOOP('',(#424,#425));
#427=FACE_BOUND('',#426,.T.);
#428=ORIENTED_EDGE('',*,*,#273,.F.);
#429=ORIENTED_EDGE('',*,*,#309,.T.);
#430=ORIENTED_EDGE('',*,*,#340,.T.);
#431=ORIENTED_EDGE('',*,*,#413,.F.);
#432=EDGE_LOOP('',(#428,#429,#430,#431));
#433=FACE_BOUND('',#432,.T.);
#434=ADVANCED_FACE('',(#427,#433),#423,.T.);
#435=CARTESIAN_POINT('',(0.,0.,0.));
#436=DIRECTION('',(0.,0.,1.));
#437=DIRECTION('',(1.,0.,0.));
#438=AXIS2_PLACEMENT_3D('',#435,#436,#437);
#439=PLANE('',#438);
#440=ORIENTED_EDGE('',*,*,#368,.T.);
#441=ORIENTED_EDGE('',*,*,#375,.T.);
#442=EDGE_LOOP('',(#440,#441));
#443=FACE_BOUND('',#442,.T.);
#444=ORIENTED_EDGE('',*,*,#257,.T.);
#445=ORIENTED_EDGE('',*,*,#406,.T.);
#446=ORIENTED_EDGE('',*,*,#326,.F.);
#447=ORIENTED_EDGE('',*,*,#295,.F.);
#448=EDGE_LOOP('',(#444,#445,#446,#447));
#449=FACE_BOUND('',#448,.T.);
#450=ADVANCED_FACE('',(#443,#449),#439,.F.);
#451=CLOSED_SHELL('',(#283,#314,#345,#396,#418,#434,#450));
#452=MANIFOLD_SOLID_BREP('\X2\5B9E4F53\X0\  844',#451);
#243=STYLED_ITEM('',(#242),#452);
#16=SHAPE_REPRESENTATION('root',(#15),#10);
#17=ADVANCED_BREP_SHAPE_REPRESENTATION('root',(#235,#452),#10);
#460=SHAPE_REPRESENTATION_RELATIONSHIP('','',#16,#17);
#461=CARTESIAN_POINT('',(0.,0.,0.));
#462=DIRECTION('',(0.,0.,1.));
#463=DIRECTION('',(1.,0.,0.));
#464=AXIS2_PLACEMENT_3D('',#461,#462,#463);
#466=MAPPED_ITEM('',#465,#464);
#465=REPRESENTATION_MAP(#464,#16);
#467=APPLICATION_CONTEXT('Managed model based 3d engineering');
#468=APPLICATION_PROTOCOL_DEFINITION('international standard','ap242_managed_model_based_3d_engineering',2014,#467);
#469=PRODUCT_CONTEXT('',#467,'mechanical');
#470=PRODUCT_DEFINITION_CONTEXT('part definition',#467,'design');
#24=PRODUCT('root','root','',(#469));
#471=PRODUCT_RELATED_PRODUCT_CATEGORY('part','',(#24));
#472=PRODUCT_DEFINITION_FORMATION_WITH_SPECIFIED_SOURCE('','',#24,.NOT_KNOWN.);
#25=PRODUCT_DEFINITION('design','',#472,#470);
#23=PRODUCT_DEFINITION_SHAPE('','',#25);
#473=SHAPE_DEFINITION_REPRESENTATION(#23,#16);
#11=DRAUGHTING_MODEL('',(#466),#10);
#474=DESCRIPTIVE_REPRESENTATION_ITEM('KEY','C:\\Users\\86180\\AppData\\Local\\Packages\\Shapr3D.Shapr3D_j403pzjkqtqbj\\TempState\\06d15e85-04d0-497c-b3b1-6de283c426fa.tmp');
#475=PROPERTY_DEFINITION('KEY','',#25);
#476=REPRESENTATION('',(#474),#10);
#477=PROPERTY_DEFINITION_REPRESENTATION(#475,#476);
#478=GENERAL_PROPERTY('','KEY','');
#479=GENERAL_PROPERTY_ASSOCIATION('','',#478,#475);
#1=MECHANICAL_DESIGN_GEOMETRIC_PRESENTATION_REPRESENTATION('',(#26,#243),#10);
ENDSEC;
END-ISO-10303-21;
